HIERARCHY
ROOT hip
{
  OFFSET 0 0 0
  CHANNELS 6 Xposition Yposition Zposition Zrotation Yrotation Xrotation
  JOINT abdomen
  {
    OFFSET 0 20.6881 -0.73152
    CHANNELS 3 Zrotation Xrotation Yrotation
    JOINT chest
    {
      OFFSET 0 11.7043 -0.48768
      CHANNELS 3 Zrotation Xrotation Yrotation
      JOINT neck
      {
        OFFSET 0 22.1894 -2.19456
        CHANNELS 3 Zrotation Xrotation Yrotation
        JOINT head
        {
          OFFSET -0.24384 7.07133 1.2192
          CHANNELS 3 Zrotation Xrotation Yrotation
          JOINT leftEye
          {
            OFFSET 4.14528 8.04674 8.04672
            CHANNELS 3 Zrotation Xrotation Yrotation
            End Site
            {
              OFFSET 1 0 0
            }
          }
          JOINT rightEye
          {
            OFFSET -3.6576 8.04674 8.04672
            CHANNELS 3 Zrotation Xrotation Yrotation
            End Site
            {
              OFFSET 1 0 0
            }
          }
        }
      }
      JOINT rCollar
      {
        OFFSET -2.68224 19.2634 -4.8768
        CHANNELS 3 Zrotation Xrotation Yrotation
        JOINT rShldr
        {
          OFFSET -8.77824 -1.95073 1.46304
          CHANNELS 3 Zrotation Xrotation Yrotation
          JOINT rForeArm
          {
            OFFSET -28.1742 -1.7115 0.48768
            CHANNELS 3 Zrotation Xrotation Yrotation
            JOINT rHand
            {
              OFFSET -22.5879 0.773209 7.07136
              CHANNELS 3 Zrotation Xrotation Yrotation
              JOINT rThumb1
              {
                OFFSET -1.2192 -0.487915 3.41376
                CHANNELS 3 Zrotation Xrotation Yrotation
                JOINT rThumb2
                {
                  OFFSET -3.37035 -0.52449 3.41376
                  CHANNELS 3 Zrotation Xrotation Yrotation
                  End Site
                  {
                    OFFSET -1.78271 -1.18214 1.43049
                  }
                }
              }
              JOINT rIndex1
              {
                OFFSET -7.75947 0.938293 5.60832
                CHANNELS 3 Zrotation Xrotation Yrotation
                JOINT rIndex2
                {
                  OFFSET -2.54057 -0.884171 1.56538
                  CHANNELS 3 Zrotation Xrotation Yrotation
                  End Site
                  {
                    OFFSET -1.62519 -0.234802 1.16502
                  }
                }
              }
              JOINT rMid1
              {
                OFFSET -8.24714 1.18213 3.41376
                CHANNELS 3 Zrotation Xrotation Yrotation
                JOINT rMid2
                {
                  OFFSET -3.10165 -0.590103 1.0647
                  CHANNELS 3 Zrotation Xrotation Yrotation
                  End Site
                  {
                    OFFSET -2.48547 -0.328903 0.83742
                  }
                }
              }
              JOINT rRing1
              {
                OFFSET -8.82822 0.546677 1.51678
                CHANNELS 3 Zrotation Xrotation Yrotation
                JOINT rRing2
                {
                  OFFSET -2.60934 -0.819778 -0.0198488
                  CHANNELS 3 Zrotation Xrotation Yrotation
                  End Site
                  {
                    OFFSET -2.33842 -0.294052 0.168128
                  }
                }
              }
              JOINT rPinky1
              {
                OFFSET -8.27202 -0.0477905 -0.4584
                CHANNELS 3 Zrotation Xrotation Yrotation
                JOINT rPinky2
                {
                  OFFSET -1.82734 -0.647385 -0.700984
                  CHANNELS 3 Zrotation Xrotation Yrotation
                  End Site
                  {
                    OFFSET -1.69225 -0.51767 -0.607171
                  }
                }
              }
            }
          }
        }
      }
      JOINT lCollar
      {
        OFFSET 2.68224 19.2634 -4.8768
        CHANNELS 3 Zrotation Xrotation Yrotation
        JOINT lShldr
        {
          OFFSET 8.77824 -1.95073 1.46304
          CHANNELS 3 Zrotation Xrotation Yrotation
          JOINT lForeArm
          {
            OFFSET 28.1742 -1.7115 0.48768
            CHANNELS 3 Zrotation Xrotation Yrotation
            JOINT lHand
            {
              OFFSET 22.5879 0.773209 7.07136
              CHANNELS 3 Zrotation Xrotation Yrotation
              JOINT lThumb1
              {
                OFFSET 1.2192 -0.487915 3.41376
                CHANNELS 3 Zrotation Xrotation Yrotation
                JOINT lThumb2
                {
                  OFFSET 3.37035 -0.52449 3.41376
                  CHANNELS 3 Zrotation Xrotation Yrotation
                  End Site
                  {
                    OFFSET 1.78271 -1.18214 1.43049
                  }
                }
              }
              JOINT lIndex1
              {
                OFFSET 7.75947 0.938293 5.60832
                CHANNELS 3 Zrotation Xrotation Yrotation
                JOINT lIndex2
                {
                  OFFSET 2.54057 -0.884171 1.56538
                  CHANNELS 3 Zrotation Xrotation Yrotation
                  End Site
                  {
                    OFFSET 1.62519 -0.234802 1.16502
                  }
                }
              }
              JOINT lMid1
              {
                OFFSET 8.24714 1.18213 3.41376
                CHANNELS 3 Zrotation Xrotation Yrotation
                JOINT lMid2
                {
                  OFFSET 3.10165 -0.590103 1.0647
                  CHANNELS 3 Zrotation Xrotation Yrotation
                  End Site
                  {
                    OFFSET 2.48547 -0.328903 0.83742
                  }
                }
              }
              JOINT lRing1
              {
                OFFSET 8.82822 0.546677 1.51678
                CHANNELS 3 Zrotation Xrotation Yrotation
                JOINT lRing2
                {
                  OFFSET 2.60934 -0.819778 -0.0198488
                  CHANNELS 3 Zrotation Xrotation Yrotation
                  End Site
                  {
                    OFFSET 2.33842 -0.294052 0.168128
                  }
                }
              }
              JOINT lPinky1
              {
                OFFSET 8.27202 -0.0477905 -0.4584
                CHANNELS 3 Zrotation Xrotation Yrotation
                JOINT lPinky2
                {
                  OFFSET 1.82734 -0.647385 -0.700984
                  CHANNELS 3 Zrotation Xrotation Yrotation
                  End Site
                  {
                    OFFSET 1.69225 -0.51767 -0.607171
                  }
                }
              }
            }
          }
        }
      }
    }
  }
  JOINT rButtock
  {
    OFFSET -8.77824 4.35084 1.2192
    CHANNELS 3 Zrotation Xrotation Yrotation
    JOINT rThigh
    {
      OFFSET 0 -1.70687 -2.19456
      CHANNELS 3 Zrotation Xrotation Yrotation
      JOINT rShin
      {
        OFFSET 0 -36.8199 0.73152
        CHANNELS 3 Zrotation Xrotation Yrotation
        JOINT rFoot
        {
          OFFSET 0.73152 -45.1104 -5.12064
          CHANNELS 3 Zrotation Xrotation Yrotation
          End Site
          {
            OFFSET -1.1221 -3.69964 12.103
          }
        }
      }
    }
  }
  JOINT lButtock
  {
    OFFSET 8.77824 4.35084 1.2192
    CHANNELS 3 Zrotation Xrotation Yrotation
    JOINT lThigh
    {
      OFFSET 0 -1.70687 -2.19456
      CHANNELS 3 Zrotation Xrotation Yrotation
      JOINT lShin
      {
        OFFSET 0 -36.8199 0.73152
        CHANNELS 3 Zrotation Xrotation Yrotation
        JOINT lFoot
        {
          OFFSET -0.73152 -45.1104 -5.12064
          CHANNELS 3 Zrotation Xrotation Yrotation
          End Site
          {
            OFFSET 1.1221 -3.69964 12.103
          }
        }
      }
    }
  }
}
MOTION
Frames:	4
Frame Time:	0.00833333
-43.1855 82.7993 2.51884 382.502 93.4754 396.399 -0.2508 -18.9834 0.24883 3.2584 1.06353 0.390701 -7.06224 22.8935 -1.18424 17.335 -33.9201 2.23806 -0.0 0.0 0.0 -0.0 0.0 0.0 7.57599e-14 1.8116e-12 -8.75274e-14 84.073 -2.10473 -8.12338 -8.27618 -3.15774 14.6062 -1.10293 28.3946 4.3572 -4.28297e-09 -1.98721e-09 4.55428e-09 -7.29488e-09 -3.4479e-09 7.96073e-09 -4.28297e-09 -1.98721e-09 4.55428e-09 7.73091 5.47488 0.417314 -4.28297e-09 -1.98721e-09 4.55429e-09 2.90554 0.965183 0.102902 -4.28297e-09 -1.98721e-09 4.55428e-09 10.2786 0.731801 0.0259123 -4.28298e-09 -1.98721e-09 4.5543e-09 2.22167 -0.733487 -0.20892 7.56973e-14 1.81161e-12 -8.76454e-14 12.6457 -72.9545 104.231 5.85972 -1.98291 -10.2353 160.346 46.4525 -171.497 2.39533e-09 1.26661e-10 2.19304e-09 4.13333e-09 7.72982e-11 3.34939e-09 2.39533e-09 1.26659e-10 2.19304e-09 -7.73091 5.47488 -0.417314 2.39533e-09 1.26658e-10 2.19303e-09 -2.90554 0.965183 -0.102902 2.39532e-09 1.26659e-10 2.19303e-09 -10.2786 0.731801 -0.0259123 2.39534e-09 1.26659e-10 2.19302e-09 -2.22167 -0.733487 0.20892 -2.03217e-16 0.0 -3.88251e-19 11.6006 -33.4345 9.56224 -0.114271 24.509 -0.051499 -1.06568 -5.23957 -3.70865 2.03217e-16 0.0 3.88251e-19 6.3068 -25.9633 4.2691 1.12948 60.8008 -1.5641 1.96739 13.4944 -13.6937
-42.6344 82.7808 2.59938 384.16 93.4284 398.091 -0.108879 -18.7098 0.413751 3.25079 1.03188 0.429326 -7.11407 22.9051 -1.18594 17.278 -34.0334 2.22221 -0.0 0.0 0.0 -0.0 0.0 0.0 8.55586e-14 1.98473e-12 -7.88189e-14 84.1748 -1.58582 -7.64683 -8.26825 -3.1535 14.5917 -1.0936 28.2863 4.33751 -3.68578e-09 -1.52617e-09 3.35289e-09 -6.29034e-09 -2.65159e-09 5.87323e-09 -3.68578e-09 -1.52616e-09 3.35288e-09 7.73091 5.47488 0.417314 -3.68578e-09 -1.52617e-09 3.3529e-09 2.90554 0.965183 0.102902 -3.68577e-09 -1.52616e-09 3.35289e-09 10.2786 0.731801 0.0259123 -3.68579e-09 -1.52616e-09 3.3529e-09 2.22167 -0.733487 -0.20892 8.55016e-14 1.98473e-12 -7.89493e-14 10.4188 -73.2193 102.074 5.85554 -1.98027 -10.2277 160.232 46.9722 -171.34 1.97646e-09 3.05763e-11 1.58065e-09 3.38654e-09 -4.88817e-11 2.39023e-09 1.97645e-09 3.05722e-11 1.58065e-09 -7.73091 5.47488 -0.417314 1.97645e-09 3.0571e-11 1.58065e-09 -2.90554 0.965183 -0.102902 1.97644e-09 3.05698e-11 1.58065e-09 -10.2786 0.731801 -0.0259123 1.97646e-09 3.05704e-11 1.58064e-09 -2.22167 -0.733487 0.20892 -2.03217e-16 0.0 -3.88251e-19 11.6784 -32.8933 9.35365 -0.11035 24.5515 -0.0488431 -1.1069 -5.77852 -3.73839 2.03217e-16 0.0 3.88251e-19 6.6069 -27.2745 4.51801 1.26051 62.4924 -1.65621 1.38717 11.8464 -12.0074
-41.9628 82.7985 2.67929 382.853 93.5933 396.594 -0.0247224 -18.4793 0.570338 3.24933 1.00373 0.468215 -7.11948 22.9372 -1.20282 17.1508 -34.1118 2.15334 -0.0 0.0 0.0 -0.0 0.0 0.0 8.74948e-14 1.98059e-12 -6.82825e-14 84.2596 -1.26503 -7.20734 -8.26079 -3.14952 14.578 -1.09554 28.3105 4.34183 -3.19918e-09 -1.17982e-09 2.45727e-09 -5.46984e-09 -2.05294e-09 4.31613e-09 -3.19918e-09 -1.17982e-09 2.45727e-09 7.73091 5.47488 0.417314 -3.19918e-09 -1.17982e-09 2.45729e-09 2.90554 0.965183 0.102902 -3.19917e-09 -1.17981e-09 2.45728e-09 10.2786 0.731801 0.0259123 -3.19918e-09 -1.17981e-09 2.45729e-09 2.22167 -0.733487 -0.20892 8.74414e-14 1.98059e-12 -6.84316e-14 8.97402 -73.4611 100.693 5.85166 -1.97801 -10.2206 160.172 47.2376 -171.259 1.65422e-09 -3.1163e-11 1.14583e-09 2.81555e-09 -1.27092e-10 1.71135e-09 1.65421e-09 -3.11678e-11 1.14583e-09 -7.73091 5.47488 -0.417314 1.65422e-09 -3.11692e-11 1.14583e-09 -2.90554 0.965183 -0.102902 1.65421e-09 -3.11721e-11 1.14582e-09 -10.2786 0.731801 -0.0259123 1.65422e-09 -3.1171e-11 1.14581e-09 -2.22167 -0.733487 0.20892 -2.03217e-16 0.0 -3.88251e-19 11.6807 -32.3497 9.06425 -0.106092 24.5848 -0.0430649 -1.14849 -6.30848 -3.76554 2.03217e-16 0.0 3.88251e-19 6.82393 -28.5635 4.66131 1.38854 63.9885 -1.75243 0.94337 10.2902 -10.4255
-41.2132 82.8431 2.72758 380.299 93.7927 393.685 -0.0293859 -18.3009 0.71427 3.26283 0.982264 0.507547 -7.05754 23.006 -1.24369 16.9177 -34.1608 2.00406 -0.0 0.0 0.0 -0.0 0.0 0.0 7.86516e-14 1.72102e-12 -5.40729e-14 84.3247 -1.27193 -6.83295 -8.25494 -3.1464 14.5673 -1.11799 28.5739 4.38964 -2.84769e-09 -9.78552e-10 1.95089e-09 -4.87384e-09 -1.70423e-09 3.43409e-09 -2.84769e-09 -9.78548e-10 1.95089e-09 7.73091 5.47488 0.417314 -2.84769e-09 -9.78554e-10 1.9509e-09 2.90554 0.965183 0.102902 -2.84768e-09 -9.78546e-10 1.95089e-09 10.2786 0.731801 0.0259123 -2.84769e-09 -9.78547e-10 1.95091e-09 2.22167 -0.733487 -0.20892 7.85996e-14 1.72102e-12 -5.425e-14 9.44603 -73.6656 101.208 5.85415 -1.9789 -10.2251 160.239 46.9267 -171.353 1.46943e-09 -4.6919e-11 9.53944e-10 2.4932e-09 -1.42087e-10 1.41428e-09 1.46942e-09 -4.69229e-11 9.53945e-10 -7.73091 5.47488 -0.417314 1.46942e-09 -4.69242e-11 9.53943e-10 -2.90554 0.965183 -0.102902 1.46941e-09 -4.69273e-11 9.53938e-10 -10.2786 0.731801 -0.0259123 1.46943e-09 -4.69259e-11 9.53926e-10 -2.22167 -0.733487 0.20892 -2.03217e-16 0.0 -3.88251e-19 11.5678 -31.7931 8.64068 -0.101288 24.6016 -0.0339637 -1.18876 -6.82712 -3.78189 2.03217e-16 0.0 3.88251e-19 6.91549 -29.8321 4.65076 1.51154 65.2715 -1.85178 0.624134 8.85875 -8.97496
